<svg xmlns="http://www.w3.org/2000/svg" width="160" height="78" viewBox="0 0 160 78">
    <g fill="#231F20" fill-rule="evenodd">
        <path d="M10.35 24.892l4.064 11.172L3.93 30.649l-3.93 3.527 11.17 17.7 3.973-3.563-6.647-9.993.04-.037 11.456 5.68 1.589-1.424-4.244-12.15.04-.037 9.052 7.838 3.994-3.583L14.323 21.33zM42.9 13.346l-.052.02.269 6.926 4.168-1.59-4.385-5.356zm.298 11.308l-.052 3.856-5.32 2.027.066-22.107 5.472-2.085 14.612 16.511-5.344 2.038-2.53-2.873-6.904 2.633zM71.762.613l-5.35.37 1.42 20.583 11.767-.812-.314-4.532-6.414.443zM97.455 10.175l.59.124c1.392.294 2.89.357 3.25-1.357.39-1.847-1.222-2.3-2.641-2.598l-.375-.08-.824 3.911zm-1.738 8.25l.67.14c1.553.328 4.16.961 4.63-1.262.513-2.437-2.136-2.743-3.85-3.105l-.536-.113-.914 4.34zm-6.096 2.91l4.255-20.194 7.5 1.58c3.588.756 5.705 2.657 4.893 6.514-.384 1.821-1.284 3.17-3.093 3.656l-.01.054c2.813.984 3.633 3.2 3.04 6.011-.891 4.232-4.8 4.863-8.497 4.084l-8.088-1.705zM127.617 17.116l-1.642 3.032 5.32 2.88-2.163 3.994-5.319-2.88-1.693 3.13 5.607 3.035-2.163 3.995-10.323-5.59 9.822-18.144 10.323 5.589-2.163 3.994zM155.115 41.682c.26-1.821-.447-3.636-1.75-4.926-2.336-2.31-5.683-2.078-7.935.199-2.29 2.315-2.35 5.567.025 7.915 1.245 1.233 3.087 1.86 4.828 1.697l-4.522 4.573c-1.65-.862-2.853-1.475-4.04-2.648-2.045-2.021-3.22-4.724-3.372-7.608-.172-3.056.975-5.695 3.13-7.874 1.983-2.005 4.648-3.181 7.472-3.236 2.904-.055 5.87 1.11 7.934 3.15 1.226 1.212 2.085 2.6 2.753 4.185l-4.523 4.573zM48.042 59.804h.168c.565 0 1.202-.106 1.202-.83 0-.725-.637-.832-1.202-.832h-.168v1.662zm3.81 3.676h-2.157l-1.636-2.562h-.017v2.562H46.31v-6.663h2.59c1.317 0 2.315.627 2.315 2.05 0 .92-.512 1.715-1.458 1.883l2.095 2.73zM57.584 58.283v1.114h1.954v1.467h-1.954v1.15h2.06v1.467h-3.792v-6.665h3.791v1.467zM65.977 62.014h.39c1.033 0 1.917-.566 1.917-1.865 0-1.194-.787-1.866-1.9-1.866h-.407v3.73zm-1.732-5.198h2.457c1.856 0 3.385 1.458 3.385 3.333 0 1.874-1.538 3.332-3.385 3.332h-2.457v-6.665zM78.657 59.389v-2.572h1.732v6.664h-1.732v-2.73h-2.502v2.73h-1.732v-6.664h1.732v2.572zM85.052 63.48h1.732v-6.663h-1.732zM93.18 62.014h2.078v1.467h-3.81v-6.665h1.733zM101.088 62.014h2.077v1.467h-3.81v-6.665h1.733zM110.922 58.531c-.318-.265-.725-.442-1.148-.442-.32 0-.743.185-.743.557 0 .389.469.539.769.636l.442.133c.928.274 1.643.743 1.643 1.821 0 .663-.158 1.343-.689 1.794-.52.442-1.219.627-1.891.627a4.11 4.11 0 0 1-2.342-.76l.742-1.396c.433.38.946.69 1.538.69.407 0 .84-.204.84-.672 0-.487-.68-.655-1.052-.76-1.087-.31-1.803-.593-1.803-1.883 0-1.353.963-2.236 2.298-2.236.671 0 1.494.212 2.086.548l-.69 1.343zM45.272 74.559h.017l1.397-4.304h1.38l1.307 4.304h.018l1.255-4.304h1.803l-2.131 6.664h-1.767l-1.167-3.862h-.018l-1.308 3.862H44.3l-1.988-6.664h1.803zM58.144 71.721v1.114h1.954v1.467h-1.954v1.15h2.06v1.467h-3.792v-6.665h3.792v1.467zM68.464 71.97c-.318-.266-.724-.443-1.149-.443-.318 0-.742.186-.742.557 0 .389.468.538.769.636l.442.132c.928.275 1.644.743 1.644 1.822 0 .662-.16 1.343-.69 1.794-.52.442-1.219.627-1.89.627a4.11 4.11 0 0 1-2.343-.76l.742-1.397c.433.381.946.69 1.538.69.407 0 .84-.203.84-.671 0-.487-.68-.655-1.052-.76-1.087-.31-1.803-.593-1.803-1.884 0-1.351.963-2.235 2.298-2.235.672 0 1.494.212 2.086.548l-.69 1.343zM76.434 76.918H74.7v-5.197H73.27v-1.467h4.596v1.467h-1.431zM88.671 73.198c-.017.973-.088 1.803-.68 2.633-.654.91-1.635 1.309-2.749 1.309-2.095 0-3.553-1.423-3.553-3.519 0-2.164 1.468-3.588 3.615-3.588 1.37 0 2.43.62 3.005 1.865l-1.643.69c-.24-.637-.743-1.061-1.441-1.061-1.14 0-1.733 1.087-1.733 2.104 0 1.034.62 2.086 1.76 2.086.75 0 1.325-.389 1.395-1.158h-1.413v-1.361h3.437zM95.906 72.313h-.018l-.716 2.122h1.441l-.707-2.122zm-1.211 3.448l-.46 1.158h-1.838l2.563-6.665h1.892l2.51 6.665h-1.847l-.434-1.158h-2.386zM105.555 76.918h-1.732v-5.197h-1.432v-1.467h4.596v1.467h-1.432zM112.88 71.721v1.114h1.953v1.467h-1.954v1.15h2.06v1.467h-3.792v-6.665h3.791v1.467z"/>
    </g>
</svg>
