<svg xmlns="http://www.w3.org/2000/svg" xmlns:xlink="http://www.w3.org/1999/xlink" width="148" height="56" viewBox="0 0 148 56">
    <defs>
        <path id="a" d="M0 56h148V0H0z"/>
    </defs>
    <g fill="none" fill-rule="evenodd">
        <path fill="#231F20" d="M33 18.976V31h-5.636V20.33c0-3.302-1.033-5.377-3.657-5.377-2.367 0-4.303 1.99-4.303 5.716V31h-5.636V20.33c0-3.302-1.076-5.377-3.7-5.377-2.539 0-4.432 1.99-4.432 5.716V31H0V10.339h5.636v2.752h.043C7.314 11.058 9.595 10 11.961 10c2.753 0 4.948 1.016 6.238 3.302h.087C20.006 11.142 22.588 10 25.6 10c4.56 0 7.4 2.667 7.4 8.976zM58 11L46.543 41h-5.838l3.747-9.97L36 11h5.925l5.228 13.207h.043L52.076 11z"/>
        <mask id="b" fill="#fff">
            <use xlink:href="#a"/>
        </mask>
        <path fill="#231F20" d="M62 32h6V0h-6zM89.565 21.087c0-3.405-2.26-5.98-5.348-5.98-3.043 0-5.478 2.314-5.478 5.98 0 3.449 2.261 5.806 5.435 5.806 2.957 0 5.391-2.314 5.391-5.806zM95 10.35v21.302h-5.39v-2.576h-.132C88.044 30.953 85.87 32 83.13 32 77.261 32 73 27.635 73 21.044 73 14.584 77.304 10 83 10c2.522 0 4.696.917 6.217 2.75h.131v-2.4H95zM121 18.722V31h-5.61V20.119c0-3.938-1.413-5.165-4.026-5.165-2.826 0-4.754 1.947-4.754 5.63V31H101V10.339h5.61v2.667h.086c1.713-1.99 4.112-3.006 6.68-3.006 4.498 0 7.624 2.37 7.624 8.722M142.662 21.247c0-3.355-2.325-5.892-5.554-5.892-3.014 0-5.382 2.28-5.382 5.892 0 3.398 2.24 5.72 5.382 5.72 3.1 0 5.554-2.279 5.554-5.72zM148 0v31.656h-5.381v-2.538h-.087c-1.463 1.85-3.659 2.882-6.458 2.882C130.262 32 126 27.7 126 21.204c0-6.365 4.262-10.881 9.902-10.881 2.583 0 4.779.903 6.329 2.71h.13V0H148zM42.82 51.89c.69 0 1.035-.363 1.035-.92 0-.55-.346-.914-.988-.914h-.777v1.834h.73zM41 49h2.063C44.41 49 45 49.845 45 50.994c0 1.319-.816 1.953-2.04 1.953h-.87V55H41v-6zM52.864 52.786l-.86-2.358h-.018l-.85 2.358h1.728zm.371 1.014h-2.47L50.33 55H49l2.38-6h1.222L55 55h-1.33l-.435-1.2zM60.273 51.899h.897c.797 0 1.227-.372 1.227-.93 0-.55-.42-.913-1.172-.913h-.952V51.9zM62.48 55l-1.456-2.054h-.75V55H59v-6h2.463c1.566 0 2.262.845 2.262 1.994 0 .964-.504 1.555-1.337 1.809L64 55h-1.52zM68.838 50.065H67V49h5v1.065h-1.848V55h-1.314zM80 49v6h-1.202l-2.613-3.98h-.017V55H75v-6h1.168l2.646 4.056h.008V49zM85 49h3.823v1.065h-2.66v1.436h2.13v1.049h-2.13v1.394H89V55h-4zM94.273 51.899h.897c.798 0 1.227-.372 1.227-.93 0-.55-.42-.913-1.172-.913h-.952V51.9zM96.48 55l-1.457-2.054h-.75V55H93v-6h2.464c1.565 0 2.262.845 2.262 1.994 0 .964-.504 1.555-1.338 1.809L98 55h-1.52zM102 54.076l.66-.859c.415.512.948.735 1.387.735.533 0 .8-.256.8-.619 0-.43-.298-.586-.973-.826-.838-.313-1.677-.725-1.677-1.832 0-.94.783-1.659 1.787-1.675.69-.008 1.334.264 1.875.743l-.635.875c-.463-.405-.871-.578-1.216-.578-.384 0-.667.214-.667.586-.008.363.299.52.933.784.965.396 1.726.66 1.726 1.791 0 1.28-1.059 1.799-1.969 1.799-.72 0-1.45-.289-2.031-.924" mask="url(#b)"/>
    </g>
</svg>
